<svg width="177" height="126" viewBox="0 0 177 126" fill="none" xmlns="http://www.w3.org/2000/svg">
<path fill-rule="evenodd" clip-rule="evenodd" d="M88.0848 0.398437C88.4282 0.398437 88.7067 0.676862 88.7067 1.02032L88.7067 96.2502C88.7067 96.5937 88.4282 96.8721 88.0848 96.8721C87.7413 96.8721 87.4629 96.5937 87.4629 96.2502L87.4629 1.02032C87.4629 0.676862 87.7413 0.398437 88.0848 0.398437Z" fill="#C9A364"/>
<path fill-rule="evenodd" clip-rule="evenodd" d="M46.6376 25.0713C46.838 25.0903 47.0692 25.2756 47.2237 25.5411L88.0001 95.8984C88.1551 96.1648 88.2026 96.4595 88.1203 96.645C88.038 96.8305 87.8422 96.8703 87.6243 96.7457L46.8479 73.6768C46.7046 73.5949 46.5669 73.4503 46.4653 73.2749C46.3638 73.0995 46.3066 72.9079 46.3066 72.7425L46.3066 25.454C46.3066 25.2032 46.4372 25.0523 46.6376 25.0713ZM47.3838 27.5645L47.3838 72.7393L86.7817 95.2574L47.3838 27.5645Z" fill="#C9A364"/>
<mask id="mask0" style="mask-type:alpha" maskUnits="userSpaceOnUse" x="46" y="25" width="43" height="72">
<path d="M46.8457 73.1251L88.087 96.625L46.8457 25.8367L46.8457 73.1251Z" fill="#C4C4C4"/>
</mask>
<g mask="url(#mask0)">
<path fill-rule="evenodd" clip-rule="evenodd" d="M59.346 21.5763C59.5888 21.8192 59.5888 22.2129 59.346 22.4558L23.2912 58.5106C23.0483 58.7535 22.6546 58.7535 22.4117 58.5106C22.1688 58.2678 22.1688 57.874 22.4117 57.6312L58.4665 21.5763C58.7094 21.3335 59.1031 21.3335 59.346 21.5763Z" fill="#C9A364"/>
<path fill-rule="evenodd" clip-rule="evenodd" d="M64.6487 26.8779C64.8916 27.1208 64.8916 27.5145 64.6487 27.7574L28.5939 63.8122C28.351 64.0551 27.9573 64.0551 27.7144 63.8122C27.4716 63.5693 27.4716 63.1756 27.7144 62.9327L63.7693 26.8779C64.0121 26.635 64.4059 26.635 64.6487 26.8779Z" fill="#C9A364"/>
<path fill-rule="evenodd" clip-rule="evenodd" d="M69.9495 32.1803C70.1924 32.4232 70.1924 32.8169 69.9495 33.0598L33.8947 69.1146C33.6518 69.3575 33.2581 69.3575 33.0152 69.1146C32.7724 68.8718 32.7724 68.478 33.0152 68.2352L69.07 32.1803C69.3129 31.9375 69.7066 31.9375 69.9495 32.1803Z" fill="#C9A364"/>
<path fill-rule="evenodd" clip-rule="evenodd" d="M75.2522 37.4823C75.4951 37.7252 75.4951 38.1189 75.2522 38.3618L39.1974 74.4166C38.9546 74.6595 38.5608 74.6595 38.3179 74.4166C38.0751 74.1738 38.0751 73.78 38.3179 73.5372L74.3728 37.4823C74.6156 37.2395 75.0094 37.2395 75.2522 37.4823Z" fill="#C9A364"/>
<path fill-rule="evenodd" clip-rule="evenodd" d="M80.555 42.7844C80.7978 43.0273 80.7978 43.421 80.555 43.6639L44.5001 79.7187C44.2573 79.9616 43.8635 79.9616 43.6207 79.7187C43.3778 79.4758 43.3778 79.0821 43.6207 78.8392L79.6755 42.7844C79.9184 42.5415 80.3121 42.5415 80.555 42.7844Z" fill="#C9A364"/>
<path fill-rule="evenodd" clip-rule="evenodd" d="M91.1585 53.3892C91.4013 53.6321 91.4013 54.0258 91.1585 54.2687L55.1037 90.3235C54.8608 90.5664 54.4671 90.5663 54.2242 90.3235C53.9813 90.0806 53.9813 89.6869 54.2242 89.444L90.279 53.3892C90.5219 53.1463 90.9156 53.1463 91.1585 53.3892Z" fill="#C9A364"/>
<path fill-rule="evenodd" clip-rule="evenodd" d="M101.764 63.9933C102.007 64.2361 102.007 64.6299 101.764 64.8727L65.7091 100.928C65.4663 101.17 65.0725 101.17 64.8297 100.928C64.5868 100.685 64.5868 100.291 64.8297 100.048L100.884 63.9933C101.127 63.7504 101.521 63.7504 101.764 63.9933Z" fill="#C9A364"/>
</g>
<path fill-rule="evenodd" clip-rule="evenodd" d="M129.245 25.0713C129.447 25.0515 129.578 25.2025 129.578 25.4539L129.578 72.7423C129.578 72.9074 129.521 73.0985 129.42 73.2736C129.318 73.4487 129.181 73.5933 129.038 73.6756L88.3795 96.7412C88.1618 96.8665 87.9656 96.828 87.8825 96.6435C87.7994 96.4591 87.8457 96.1651 87.9998 95.8984L128.659 25.5445C128.813 25.2778 129.044 25.0911 129.245 25.0713ZM89.3858 95.255L128.501 72.7413L128.501 27.5755L89.3858 95.255Z" fill="#C9A364"/>
<mask id="mask1" style="mask-type:alpha" maskUnits="userSpaceOnUse" x="88" y="25" width="42" height="72">
<path d="M129.111 73.1251L88.1584 96.7693L129.111 25.8367L129.111 73.1251Z" fill="#C4C4C4"/>
</mask>
<g mask="url(#mask1)">
<path fill-rule="evenodd" clip-rule="evenodd" d="M117.363 22.3987C117.12 22.6416 117.12 23.0353 117.363 23.2782L153.418 59.333C153.661 59.5759 154.054 59.5759 154.297 59.333C154.54 59.0902 154.54 58.6964 154.297 58.4535L118.242 22.3987C118 22.1559 117.606 22.1559 117.363 22.3987Z" fill="#C9A364"/>
<path fill-rule="evenodd" clip-rule="evenodd" d="M112.058 27.6996C111.815 27.9425 111.815 28.3362 112.058 28.5791L148.113 64.6339C148.356 64.8768 148.75 64.8768 148.993 64.6339C149.235 64.3911 149.235 63.9973 148.993 63.7544L112.938 27.6996C112.695 27.4568 112.301 27.4568 112.058 27.6996Z" fill="#C9A364"/>
<path fill-rule="evenodd" clip-rule="evenodd" d="M106.758 33.002C106.515 33.2448 106.515 33.6386 106.758 33.8815L142.812 69.9363C143.055 70.1791 143.449 70.1791 143.692 69.9363C143.935 69.6934 143.935 69.2997 143.692 69.0568L107.637 33.002C107.394 32.7591 107 32.7591 106.758 33.002Z" fill="#C9A364"/>
<path fill-rule="evenodd" clip-rule="evenodd" d="M101.455 38.3041C101.212 38.5469 101.212 38.9407 101.455 39.1835L137.51 75.2383C137.752 75.4812 138.146 75.4812 138.389 75.2383C138.632 74.9955 138.632 74.6017 138.389 74.3589L102.334 38.3041C102.091 38.0612 101.698 38.0612 101.455 38.3041Z" fill="#C9A364"/>
<path fill-rule="evenodd" clip-rule="evenodd" d="M96.1521 43.6061C95.9092 43.8489 95.9092 44.2427 96.1521 44.4855L132.207 80.5403C132.45 80.7832 132.843 80.7832 133.086 80.5403C133.329 80.2975 133.329 79.9037 133.086 79.6609L97.0315 43.6061C96.7887 43.3632 96.3949 43.3632 96.1521 43.6061Z" fill="#C9A364"/>
<path fill-rule="evenodd" clip-rule="evenodd" d="M85.5485 54.2109C85.3057 54.4538 85.3057 54.8475 85.5485 55.0904L121.603 91.1452C121.846 91.3881 122.24 91.3881 122.483 91.1452C122.726 90.9023 122.726 90.5086 122.483 90.2657L86.428 54.2109C86.1852 53.9681 85.7914 53.9681 85.5485 54.2109Z" fill="#C9A364"/>
<path fill-rule="evenodd" clip-rule="evenodd" d="M74.9431 64.815C74.7002 65.0578 74.7002 65.4516 74.9431 65.6944L110.998 101.749C111.241 101.992 111.635 101.992 111.877 101.749C112.12 101.506 112.12 101.113 111.877 100.87L75.8225 64.815C75.5797 64.5721 75.1859 64.5721 74.9431 64.815Z" fill="#C9A364"/>
</g>
<path fill-rule="evenodd" clip-rule="evenodd" d="M117.001 17.8106C117.253 18.0441 117.268 18.4375 117.035 18.6894L88.5409 49.433C88.3074 49.6848 87.9139 49.6998 87.662 49.4663C87.4101 49.2329 87.3952 48.8394 87.6287 48.5875L116.123 17.844C116.356 17.5921 116.75 17.5771 117.001 17.8106Z" fill="#C9A364"/>
<path fill-rule="evenodd" clip-rule="evenodd" d="M127.724 25.3815L87.7676 1.55414L88.4046 0.485901L129.271 24.8558C129.46 24.9687 129.576 25.1736 129.574 25.3941C129.573 25.6147 129.455 25.8179 129.264 25.9283L88.3973 49.5483L87.7749 48.4715L127.724 25.3815Z" fill="#C9A364"/>
<path fill-rule="evenodd" clip-rule="evenodd" d="M103.664 10.2416L88.6667 49.2333L87.5059 48.7869L102.503 9.7951L103.664 10.2416Z" fill="#C9A364"/>
<path fill-rule="evenodd" clip-rule="evenodd" d="M59.1684 17.8106C58.9165 18.0441 58.9016 18.4375 59.1351 18.6894L87.629 49.433C87.8625 49.6848 88.256 49.6998 88.5079 49.4663C88.7598 49.2329 88.7747 48.8394 88.5413 48.5875L60.0473 17.844C59.8138 17.5921 59.4203 17.5771 59.1684 17.8106Z" fill="#C9A364"/>
<path fill-rule="evenodd" clip-rule="evenodd" d="M48.0813 25.3816L88.4023 1.55552L87.7696 0.484741L46.5283 24.8546C46.3377 24.9672 46.2213 25.1728 46.2228 25.3942C46.2243 25.6156 46.3435 25.8196 46.5356 25.9296L87.7769 49.5496L88.395 48.4704L48.0813 25.3816Z" fill="#C9A364"/>
<path fill-rule="evenodd" clip-rule="evenodd" d="M72.5083 10.2416L87.5052 49.2333L88.666 48.7869L73.6692 9.7951L72.5083 10.2416Z" fill="#C9A364"/>
<path d="M140.748 48.6939C140.748 48.6939 115.251 74.5018 88.1991 74.5018C61.1474 74.5018 35.6504 48.6939 35.6504 48.6939C35.6504 48.6939 59.1772 18.5328 88.1991 18.5328C117.221 18.5328 140.748 48.6939 140.748 48.6939Z" fill="#020617"/>
<path fill-rule="evenodd" clip-rule="evenodd" d="M37.3342 48.597C37.4313 48.6896 37.537 48.7897 37.6511 48.897C38.3891 49.5914 39.477 50.587 40.868 51.7834C43.6514 54.1774 47.6419 57.3698 52.4664 60.5605C62.1498 66.9646 75.0375 73.2581 88.1991 73.2581C101.361 73.2581 114.248 66.9646 123.932 60.5605C128.756 57.3698 132.747 54.1774 135.53 51.7834C136.921 50.587 138.009 49.5914 138.747 48.897C138.861 48.7897 138.967 48.6896 139.064 48.597C138.964 48.4769 138.853 48.3453 138.732 48.2028C138.044 47.3923 137.026 46.2301 135.712 44.8333C133.084 42.0382 129.28 38.3119 124.584 34.5879C115.159 27.1147 102.295 19.7766 88.1991 19.7766C74.1028 19.7766 61.2392 27.1147 51.8143 34.5879C47.1179 38.3119 43.3145 42.0382 40.686 44.8333C39.3724 46.2301 38.3541 47.3923 37.6662 48.2028C37.5452 48.3453 37.4345 48.4769 37.3342 48.597ZM140.748 48.6939C140.748 48.6939 115.251 74.5018 88.1991 74.5018C61.1474 74.5018 35.6504 48.6939 35.6504 48.6939C35.6504 48.6939 59.1772 18.5328 88.1991 18.5328C117.221 18.5328 140.748 48.6939 140.748 48.6939Z" fill="#C9A364"/>
<path fill-rule="evenodd" clip-rule="evenodd" d="M38.0079 47.8813C36.4757 48.4356 35.6504 48.7767 35.6504 48.7767C35.6504 48.7767 36.2152 48.0506 37.2779 46.8233C43.0732 40.1303 63.6741 18.5328 88.1991 18.5328C112.724 18.5328 133.325 40.1303 139.12 46.8233C140.183 48.0506 140.748 48.7767 140.748 48.7767C140.748 48.7767 139.922 48.4356 138.39 47.8813C131.742 45.476 111.785 39.0548 88.1991 39.0548C64.6129 39.0548 44.6561 45.476 38.0079 47.8813ZM39.6989 45.9711C42.3692 45.0641 46.1308 43.8871 50.7336 42.7107C60.3108 40.2629 73.5551 37.811 88.1991 37.811C102.843 37.811 116.087 40.2629 125.665 42.7107C130.267 43.8871 134.029 45.0641 136.699 45.9711C136.391 45.633 136.062 45.2758 135.711 44.9019C133.082 42.0991 129.279 38.3625 124.583 34.6283C115.157 27.1344 102.294 19.7766 88.1991 19.7766C74.104 19.7766 61.2407 27.1344 51.8156 34.6283C47.1191 38.3625 43.3157 42.0991 40.6871 44.9019C40.3365 45.2758 40.0068 45.633 39.6989 45.9711Z" fill="#C9A364"/>
<mask id="mask2" style="mask-type:alpha" maskUnits="userSpaceOnUse" x="35" y="38" width="106" height="38">
<path d="M140.748 48.7767C140.748 48.7767 117.221 38.1221 88.1991 38.1221C59.1772 38.1221 35.6504 48.7767 35.6504 48.7767C35.6504 48.7767 45.4796 75.4348 88.1991 75.4348C128.65 75.4348 140.748 48.7767 140.748 48.7767Z" fill="#C4C4C4"/>
</mask>
<g mask="url(#mask2)">
<path fill-rule="evenodd" clip-rule="evenodd" d="M88.5765 70.972C98.7466 70.972 106.991 62.7274 106.991 52.5572C106.991 42.3871 98.7467 34.1425 88.5765 34.1425C78.4063 34.1425 70.1617 42.3871 70.1617 52.5572C70.1617 62.7274 78.4063 70.972 88.5765 70.972ZM88.5765 72.2157C99.4336 72.2157 108.235 63.4143 108.235 52.5572C108.235 41.7002 99.4336 32.8987 88.5765 32.8987C77.7194 32.8987 68.918 41.7002 68.918 52.5572C68.918 63.4143 77.7194 72.2157 88.5765 72.2157Z" fill="#C9A364"/>
<path fill-rule="evenodd" clip-rule="evenodd" d="M87.0652 64.6546C80.3839 64.6546 74.9676 59.2384 74.9676 52.5571C74.9676 45.8758 80.3839 40.4595 87.0652 40.4595C88.3544 40.4595 89.5965 40.6612 90.7617 41.0347C85.8884 42.5969 82.3607 47.165 82.3607 52.5571C82.3607 57.9491 85.8884 62.5173 90.7617 64.0794C89.5965 64.453 88.3544 64.6546 87.0652 64.6546Z" fill="white"/>
</g>
<path d="M0 113.956V125.632H2.53193V118.004H2.63442L5.82947 125.575H7.5536L10.7487 118.033H10.8511V125.632H13.3831V113.956H10.1639L6.76388 121.801H6.6192L3.21917 113.956H0Z" fill="#020617"/>
<path d="M35.0277 119.794C35.0277 115.975 32.5198 113.797 29.2464 113.797C25.9549 113.797 23.4652 115.975 23.4652 119.794C23.4652 123.596 25.9549 125.791 29.2464 125.791C32.5198 125.791 35.0277 123.614 35.0277 119.794ZM32.3812 119.794C32.3812 122.268 31.1393 123.608 29.2464 123.608C27.3475 123.608 26.1116 122.268 26.1116 119.794C26.1116 117.32 27.3475 115.98 29.2464 115.98C31.1393 115.98 32.3812 117.32 32.3812 119.794Z" fill="#020617"/>
<path d="M55.4364 113.956H52.8382V121.299H52.7297L47.4006 113.956H45.1098V125.632H47.7201V118.283H47.8105L53.1818 125.632H55.4364V113.956Z" fill="#020617"/>
<path d="M65.7416 125.632H68.3519V122.314L69.6359 120.832L73.0179 125.632H76.1406L71.5047 119.184L76.0863 113.956H72.9576L68.5146 119.104H68.3519V113.956H65.7416V125.632Z" fill="#020617"/>
<path d="M87.8247 113.956H84.9251L89.1871 125.632H92.551L96.8071 113.956H93.9134L90.9233 122.827H90.8088L87.8247 113.956Z" fill="#020617"/>
<path d="M105.718 113.956L110.221 121.504V125.632H112.814V121.504L117.317 113.956H114.393L111.578 118.985H111.457L108.642 113.956H105.718Z" fill="#020617"/>
<path d="M127.759 125.632L128.675 122.969H133.13L134.047 125.632H136.844L132.588 113.956H129.224L124.962 125.632H127.759ZM129.339 121.042L130.858 116.624H130.954L132.473 121.042H129.339Z" fill="#020617"/>
<path d="M152.894 117.314H155.396C155.36 115.233 153.551 113.797 150.802 113.797C148.096 113.797 146.112 115.211 146.124 117.331C146.118 119.053 147.402 120.039 149.488 120.512L150.832 120.832C152.177 121.139 152.924 121.504 152.93 122.291C152.924 123.146 152.068 123.728 150.742 123.728C149.386 123.728 148.409 123.135 148.325 121.966H145.799C145.865 124.491 147.776 125.797 150.772 125.797C153.786 125.797 155.559 124.434 155.565 122.297C155.559 120.353 154.009 119.321 151.863 118.865L150.754 118.614C149.681 118.38 148.783 118.004 148.801 117.166C148.801 116.414 149.506 115.861 150.784 115.861C152.032 115.861 152.798 116.396 152.894 117.314Z" fill="#020617"/>
<path d="M167.315 125.632L168.231 122.969H172.686L173.603 125.632H176.4L172.144 113.956H168.78L164.518 125.632H167.315ZM168.895 121.042L170.414 116.624H170.51L172.029 121.042H168.895Z" fill="#020617"/>
</svg>
