<svg width="177" height="126" viewBox="0 0 177 126" fill="none" xmlns="http://www.w3.org/2000/svg">
<path fill-rule="evenodd" clip-rule="evenodd" d="M88.0848 0.398437C88.4282 0.398437 88.7067 0.676862 88.7067 1.02032L88.7067 96.2502C88.7067 96.5937 88.4282 96.8721 88.0848 96.8721C87.7413 96.8721 87.4629 96.5937 87.4629 96.2502L87.4629 1.02032C87.4629 0.676862 87.7413 0.398437 88.0848 0.398437Z" fill="#C9A364"/>
<path fill-rule="evenodd" clip-rule="evenodd" d="M46.6376 25.0714C46.838 25.0905 47.0692 25.2757 47.2237 25.5413L88.0001 95.8986C88.1551 96.1649 88.2026 96.4596 88.1203 96.6451C88.038 96.8306 87.8422 96.8704 87.6243 96.7458L46.8479 73.6769C46.7046 73.595 46.5669 73.4504 46.4653 73.275C46.3638 73.0997 46.3066 72.908 46.3066 72.7426L46.3066 25.4542C46.3066 25.2033 46.4372 25.0524 46.6376 25.0714ZM47.3838 27.5647L47.3838 72.7394L86.7817 95.2575L47.3838 27.5647Z" fill="#C9A364"/>
<mask id="mask0" style="mask-type:alpha" maskUnits="userSpaceOnUse" x="46" y="25" width="43" height="72">
<path d="M46.8457 73.1253L88.087 96.6252L46.8457 25.8369L46.8457 73.1253Z" fill="#C4C4C4"/>
</mask>
<g mask="url(#mask0)">
<path fill-rule="evenodd" clip-rule="evenodd" d="M59.346 21.5767C59.5888 21.8196 59.5888 22.2133 59.346 22.4562L23.2912 58.511C23.0483 58.7539 22.6546 58.7538 22.4117 58.511C22.1688 58.2681 22.1688 57.8744 22.4117 57.6315L58.4665 21.5767C58.7094 21.3338 59.1031 21.3338 59.346 21.5767Z" fill="#C9A364"/>
<path fill-rule="evenodd" clip-rule="evenodd" d="M64.6487 26.8782C64.8916 27.1211 64.8916 27.5148 64.6487 27.7577L28.5939 63.8125C28.351 64.0554 27.9573 64.0554 27.7144 63.8125C27.4716 63.5696 27.4716 63.1759 27.7144 62.933L63.7693 26.8782C64.0121 26.6354 64.4059 26.6354 64.6487 26.8782Z" fill="#C9A364"/>
<path fill-rule="evenodd" clip-rule="evenodd" d="M69.9495 32.1805C70.1924 32.4233 70.1924 32.8171 69.9495 33.0599L33.8947 69.1148C33.6518 69.3576 33.2581 69.3576 33.0152 69.1147C32.7724 68.8719 32.7724 68.4781 33.0152 68.2353L69.07 32.1805C69.3129 31.9376 69.7066 31.9376 69.9495 32.1805Z" fill="#C9A364"/>
<path fill-rule="evenodd" clip-rule="evenodd" d="M75.2522 37.4827C75.4951 37.7256 75.4951 38.1193 75.2522 38.3622L39.1974 74.417C38.9546 74.6599 38.5608 74.6599 38.3179 74.417C38.0751 74.1741 38.0751 73.7804 38.3179 73.5375L74.3728 37.4827C74.6156 37.2398 75.0094 37.2398 75.2522 37.4827Z" fill="#C9A364"/>
<path fill-rule="evenodd" clip-rule="evenodd" d="M80.555 42.7847C80.7978 43.0276 80.7978 43.4213 80.555 43.6642L44.5001 79.719C44.2573 79.9619 43.8635 79.9619 43.6207 79.719C43.3778 79.4761 43.3778 79.0824 43.6207 78.8395L79.6755 42.7847C79.9184 42.5418 80.3121 42.5418 80.555 42.7847Z" fill="#C9A364"/>
<path fill-rule="evenodd" clip-rule="evenodd" d="M91.1585 53.3894C91.4013 53.6323 91.4013 54.0261 91.1585 54.2689L55.1037 90.3237C54.8608 90.5666 54.4671 90.5666 54.2242 90.3237C53.9813 90.0809 53.9813 89.6871 54.2242 89.4443L90.279 53.3894C90.5219 53.1466 90.9156 53.1466 91.1585 53.3894Z" fill="#C9A364"/>
<path fill-rule="evenodd" clip-rule="evenodd" d="M101.764 63.9934C102.007 64.2363 102.007 64.6301 101.764 64.8729L65.7091 100.928C65.4663 101.171 65.0725 101.171 64.8297 100.928C64.5868 100.685 64.5868 100.291 64.8297 100.048L100.884 63.9934C101.127 63.7506 101.521 63.7506 101.764 63.9934Z" fill="#C9A364"/>
</g>
<path fill-rule="evenodd" clip-rule="evenodd" d="M129.245 25.0713C129.447 25.0515 129.578 25.2025 129.578 25.4539L129.578 72.7423C129.578 72.9074 129.521 73.0985 129.42 73.2736C129.318 73.4487 129.181 73.5933 129.038 73.6756L88.3795 96.7412C88.1618 96.8665 87.9656 96.828 87.8825 96.6435C87.7994 96.4591 87.8457 96.1651 87.9998 95.8984L128.659 25.5445C128.813 25.2778 129.044 25.0911 129.245 25.0713ZM89.3858 95.255L128.501 72.7413L128.501 27.5755L89.3858 95.255Z" fill="#C9A364"/>
<mask id="mask1" style="mask-type:alpha" maskUnits="userSpaceOnUse" x="88" y="25" width="42" height="72">
<path d="M129.111 73.1251L88.1584 96.7693L129.111 25.8367L129.111 73.1251Z" fill="#C4C4C4"/>
</mask>
<g mask="url(#mask1)">
<path fill-rule="evenodd" clip-rule="evenodd" d="M117.363 22.3987C117.12 22.6416 117.12 23.0353 117.363 23.2782L153.418 59.333C153.661 59.5759 154.054 59.5759 154.297 59.333C154.54 59.0902 154.54 58.6964 154.297 58.4535L118.242 22.3987C118 22.1559 117.606 22.1559 117.363 22.3987Z" fill="#C9A364"/>
<path fill-rule="evenodd" clip-rule="evenodd" d="M112.058 27.6995C111.815 27.9424 111.815 28.3361 112.058 28.579L148.113 64.6338C148.356 64.8767 148.75 64.8767 148.993 64.6338C149.235 64.3909 149.235 63.9972 148.993 63.7543L112.938 27.6995C112.695 27.4566 112.301 27.4566 112.058 27.6995Z" fill="#C9A364"/>
<path fill-rule="evenodd" clip-rule="evenodd" d="M106.758 33.002C106.515 33.2448 106.515 33.6386 106.758 33.8815L142.812 69.9363C143.055 70.1791 143.449 70.1791 143.692 69.9363C143.935 69.6934 143.935 69.2997 143.692 69.0568L107.637 33.002C107.394 32.7591 107 32.7591 106.758 33.002Z" fill="#C9A364"/>
<path fill-rule="evenodd" clip-rule="evenodd" d="M101.455 38.304C101.212 38.5469 101.212 38.9406 101.455 39.1835L137.51 75.2383C137.752 75.4811 138.146 75.4811 138.389 75.2383C138.632 74.9954 138.632 74.6017 138.389 74.3588L102.334 38.304C102.091 38.0611 101.698 38.0611 101.455 38.304Z" fill="#C9A364"/>
<path fill-rule="evenodd" clip-rule="evenodd" d="M96.1521 43.606C95.9092 43.8489 95.9092 44.2426 96.1521 44.4855L132.207 80.5403C132.45 80.7831 132.843 80.7831 133.086 80.5403C133.329 80.2974 133.329 79.9037 133.086 79.6608L97.0315 43.606C96.7887 43.3631 96.3949 43.3631 96.1521 43.606Z" fill="#C9A364"/>
<path fill-rule="evenodd" clip-rule="evenodd" d="M85.5485 54.2107C85.3057 54.4536 85.3057 54.8473 85.5485 55.0902L121.603 91.145C121.846 91.3879 122.24 91.3879 122.483 91.145C122.726 90.9022 122.726 90.5084 122.483 90.2656L86.428 54.2107C86.1852 53.9679 85.7914 53.9679 85.5485 54.2107Z" fill="#C9A364"/>
<path fill-rule="evenodd" clip-rule="evenodd" d="M74.9431 64.8147C74.7002 65.0576 74.7002 65.4513 74.9431 65.6942L110.998 101.749C111.241 101.992 111.635 101.992 111.877 101.749C112.12 101.506 112.12 101.112 111.877 100.87L75.8225 64.8147C75.5797 64.5719 75.1859 64.5719 74.9431 64.8147Z" fill="#C9A364"/>
</g>
<path fill-rule="evenodd" clip-rule="evenodd" d="M117.001 17.8106C117.253 18.044 117.268 18.4375 117.035 18.6894L88.5409 49.4329C88.3074 49.6848 87.9139 49.6997 87.662 49.4663C87.4101 49.2328 87.3952 48.8393 87.6287 48.5874L116.123 17.8439C116.356 17.592 116.75 17.5771 117.001 17.8106Z" fill="#C9A364"/>
<path fill-rule="evenodd" clip-rule="evenodd" d="M127.724 25.3814L87.7676 1.55408L88.4046 0.48584L129.271 24.8557C129.46 24.9687 129.576 25.1735 129.574 25.3941C129.573 25.6146 129.455 25.8179 129.264 25.9282L88.3973 49.5482L87.7749 48.4714L127.724 25.3814Z" fill="#C9A364"/>
<path fill-rule="evenodd" clip-rule="evenodd" d="M103.664 10.2414L88.6667 49.2332L87.5059 48.7867L102.503 9.79492L103.664 10.2414Z" fill="#C9A364"/>
<path fill-rule="evenodd" clip-rule="evenodd" d="M59.1684 17.8106C58.9165 18.044 58.9016 18.4375 59.1351 18.6894L87.629 49.4329C87.8625 49.6848 88.256 49.6997 88.5079 49.4663C88.7598 49.2328 88.7747 48.8393 88.5413 48.5874L60.0473 17.8439C59.8138 17.592 59.4203 17.5771 59.1684 17.8106Z" fill="#C9A364"/>
<path fill-rule="evenodd" clip-rule="evenodd" d="M48.0813 25.3815L88.4023 1.5554L87.7696 0.484619L46.5283 24.8545C46.3377 24.9671 46.2213 25.1727 46.2228 25.3941C46.2243 25.6155 46.3435 25.8195 46.5356 25.9295L87.7769 49.5495L88.395 48.4702L48.0813 25.3815Z" fill="#C9A364"/>
<path fill-rule="evenodd" clip-rule="evenodd" d="M72.5083 10.2414L87.5052 49.2332L88.666 48.7867L73.6692 9.79492L72.5083 10.2414Z" fill="#C9A364"/>
<path d="M140.748 48.6938C140.748 48.6938 115.251 74.5017 88.1991 74.5017C61.1474 74.5017 35.6504 48.6938 35.6504 48.6938C35.6504 48.6938 59.1772 18.5327 88.1991 18.5327C117.221 18.5327 140.748 48.6938 140.748 48.6938Z" fill="white"/>
<path fill-rule="evenodd" clip-rule="evenodd" d="M37.3342 48.5969C37.4313 48.6895 37.537 48.7896 37.6511 48.8969C38.3891 49.5913 39.477 50.5869 40.868 51.7833C43.6514 54.1773 47.6419 57.3696 52.4664 60.5603C62.1498 66.9645 75.0375 73.258 88.1991 73.258C101.361 73.258 114.248 66.9645 123.932 60.5603C128.756 57.3696 132.747 54.1773 135.53 51.7833C136.921 50.5869 138.009 49.5913 138.747 48.8969C138.861 48.7896 138.967 48.6895 139.064 48.5969C138.964 48.4768 138.853 48.3452 138.732 48.2026C138.044 47.3922 137.026 46.23 135.712 44.8332C133.084 42.0381 129.28 38.3117 124.584 34.5878C115.159 27.1146 102.295 19.7765 88.1991 19.7765C74.1028 19.7765 61.2392 27.1146 51.8143 34.5878C47.1179 38.3117 43.3145 42.0381 40.686 44.8332C39.3724 46.23 38.3541 47.3922 37.6662 48.2026C37.5452 48.3452 37.4345 48.4768 37.3342 48.5969ZM140.748 48.6938C140.748 48.6938 115.251 74.5017 88.1991 74.5017C61.1474 74.5017 35.6504 48.6938 35.6504 48.6938C35.6504 48.6938 59.1772 18.5327 88.1991 18.5327C117.221 18.5327 140.748 48.6938 140.748 48.6938Z" fill="#C9A364"/>
<path fill-rule="evenodd" clip-rule="evenodd" d="M38.0079 47.8812C36.4757 48.4355 35.6504 48.7766 35.6504 48.7766C35.6504 48.7766 36.2152 48.0504 37.2779 46.8232C43.0732 40.1302 63.6741 18.5327 88.1991 18.5327C112.724 18.5327 133.325 40.1302 139.12 46.8232C140.183 48.0504 140.748 48.7766 140.748 48.7766C140.748 48.7766 139.922 48.4355 138.39 47.8812C131.742 45.4759 111.785 39.0547 88.1991 39.0547C64.6129 39.0547 44.6561 45.4759 38.0079 47.8812ZM39.6989 45.971C42.3692 45.064 46.1308 43.887 50.7336 42.7106C60.3108 40.2628 73.5551 37.8109 88.1991 37.8109C102.843 37.8109 116.087 40.2628 125.665 42.7106C130.267 43.887 134.029 45.064 136.699 45.971C136.391 45.6328 136.062 45.2757 135.711 44.9018C133.082 42.099 129.279 38.3623 124.583 34.6282C115.157 27.1342 102.294 19.7765 88.1991 19.7765C74.104 19.7765 61.2407 27.1342 51.8156 34.6282C47.1191 38.3623 43.3157 42.099 40.6871 44.9018C40.3365 45.2757 40.0068 45.6328 39.6989 45.971Z" fill="#C9A364"/>
<mask id="mask2" style="mask-type:alpha" maskUnits="userSpaceOnUse" x="35" y="38" width="106" height="38">
<path d="M140.748 48.7767C140.748 48.7767 117.221 38.1221 88.1991 38.1221C59.1772 38.1221 35.6504 48.7767 35.6504 48.7767C35.6504 48.7767 45.4796 75.4348 88.1991 75.4348C128.65 75.4348 140.748 48.7767 140.748 48.7767Z" fill="#C4C4C4"/>
</mask>
<g mask="url(#mask2)">
<path fill-rule="evenodd" clip-rule="evenodd" d="M88.5765 70.9719C98.7466 70.9719 106.991 62.7274 106.991 52.5572C106.991 42.387 98.7467 34.1424 88.5765 34.1424C78.4063 34.1424 70.1617 42.387 70.1617 52.5572C70.1617 62.7274 78.4063 70.9719 88.5765 70.9719ZM88.5765 72.2157C99.4336 72.2157 108.235 63.4143 108.235 52.5572C108.235 41.7001 99.4336 32.8987 88.5765 32.8987C77.7194 32.8987 68.918 41.7001 68.918 52.5572C68.918 63.4143 77.7194 72.2157 88.5765 72.2157Z" fill="#020617"/>
<path fill-rule="evenodd" clip-rule="evenodd" d="M87.0652 64.6546C80.3839 64.6546 74.9676 59.2383 74.9676 52.557C74.9676 45.8757 80.3839 40.4595 87.0652 40.4595C88.3544 40.4595 89.5965 40.6611 90.7617 41.0346C85.8884 42.5968 82.3607 47.1649 82.3607 52.557C82.3607 57.9491 85.8884 62.5172 90.7617 64.0794C89.5965 64.4529 88.3544 64.6546 87.0652 64.6546Z" fill="#020617"/>
</g>
<path d="M0 113.956V125.632H2.53193V118.004H2.63442L5.82947 125.575H7.5536L10.7487 118.033H10.8511V125.632H13.3831V113.956H10.1639L6.76388 121.801H6.6192L3.21917 113.956H0Z" fill="#020617"/>
<path d="M35.0277 119.794C35.0277 115.975 32.5198 113.797 29.2464 113.797C25.9549 113.797 23.4652 115.975 23.4652 119.794C23.4652 123.596 25.9549 125.791 29.2464 125.791C32.5198 125.791 35.0277 123.614 35.0277 119.794ZM32.3812 119.794C32.3812 122.268 31.1393 123.608 29.2464 123.608C27.3475 123.608 26.1116 122.268 26.1116 119.794C26.1116 117.32 27.3475 115.98 29.2464 115.98C31.1393 115.98 32.3812 117.32 32.3812 119.794Z" fill="#020617"/>
<path d="M55.4364 113.956H52.8382V121.299H52.7297L47.4006 113.956H45.1098V125.632H47.7201V118.283H47.8105L53.1818 125.632H55.4364V113.956Z" fill="#020617"/>
<path d="M65.7416 125.632H68.3519V122.314L69.6359 120.832L73.0179 125.632H76.1406L71.5047 119.184L76.0863 113.956H72.9576L68.5146 119.104H68.3519V113.956H65.7416V125.632Z" fill="#020617"/>
<path d="M87.8247 113.956H84.9251L89.1871 125.632H92.551L96.8071 113.956H93.9134L90.9233 122.827H90.8088L87.8247 113.956Z" fill="#020617"/>
<path d="M105.718 113.956L110.221 121.504V125.632H112.814V121.504L117.317 113.956H114.393L111.578 118.985H111.457L108.642 113.956H105.718Z" fill="#020617"/>
<path d="M127.759 125.632L128.675 122.969H133.13L134.047 125.632H136.844L132.588 113.956H129.224L124.962 125.632H127.759ZM129.339 121.042L130.858 116.624H130.954L132.473 121.042H129.339Z" fill="#020617"/>
<path d="M152.894 117.314H155.396C155.36 115.233 153.551 113.797 150.802 113.797C148.096 113.797 146.112 115.211 146.124 117.331C146.118 119.053 147.402 120.039 149.488 120.512L150.832 120.832C152.177 121.139 152.924 121.504 152.93 122.291C152.924 123.146 152.068 123.728 150.742 123.728C149.386 123.728 148.409 123.135 148.325 121.966H145.799C145.865 124.491 147.776 125.797 150.772 125.797C153.786 125.797 155.559 124.434 155.565 122.297C155.559 120.353 154.009 119.321 151.863 118.865L150.754 118.614C149.681 118.38 148.783 118.004 148.801 117.166C148.801 116.414 149.506 115.861 150.784 115.861C152.032 115.861 152.798 116.396 152.894 117.314Z" fill="#020617"/>
<path d="M167.315 125.632L168.231 122.969H172.686L173.603 125.632H176.4L172.144 113.956H168.78L164.518 125.632H167.315ZM168.895 121.042L170.414 116.624H170.51L172.029 121.042H168.895Z" fill="#020617"/>
</svg>
