<svg width="54" height="51" viewBox="0 0 54 51" fill="none" xmlns="http://www.w3.org/2000/svg">
<path fill-rule="evenodd" clip-rule="evenodd" d="M26.9327 -1.39622e-08C27.1091 -2.16733e-08 27.2521 0.143007 27.2521 0.319416L27.2521 49.2324C27.2521 49.4088 27.1091 49.5518 26.9327 49.5518C26.7563 49.5518 26.6133 49.4088 26.6133 49.2324L26.6133 0.319416C26.6133 0.143007 26.7563 -6.25114e-09 26.9327 -1.39622e-08Z" fill="#C9A364"/>
<path fill-rule="evenodd" clip-rule="evenodd" d="M5.64265 12.6726C5.7456 12.6824 5.86432 12.7776 5.94369 12.914L26.8877 49.0516C26.9673 49.1885 26.9917 49.3398 26.9494 49.4351C26.9072 49.5304 26.8066 49.5508 26.6947 49.4868L5.75067 37.6379C5.67706 37.5959 5.60635 37.5216 5.55417 37.4315C5.50199 37.3414 5.47266 37.243 5.47266 37.158L5.47266 12.8692C5.47266 12.7404 5.53969 12.6629 5.64265 12.6726ZM6.0259 13.9532L6.0259 37.1564L26.2619 48.7224L6.0259 13.9532Z" fill="#C9A364"/>
<mask id="mask0" style="mask-type:alpha" maskUnits="userSpaceOnUse" x="5" y="13" width="22" height="37">
<path d="M5.74805 37.3547L26.9309 49.425L5.74805 13.0659L5.74805 37.3547Z" fill="#C4C4C4"/>
</mask>
<g mask="url(#mask0)">
<path fill-rule="evenodd" clip-rule="evenodd" d="M12.1673 10.8777C12.292 11.0025 12.292 11.2047 12.1673 11.3294L-6.3516 29.8483C-6.47635 29.9731 -6.67859 29.9731 -6.80333 29.8483C-6.92807 29.7236 -6.92807 29.5213 -6.80333 29.3966L11.7155 10.8777C11.8403 10.753 12.0425 10.753 12.1673 10.8777Z" fill="#C9A364"/>
<path fill-rule="evenodd" clip-rule="evenodd" d="M14.8899 13.6009C15.0147 13.7256 15.0147 13.9278 14.8899 14.0526L-3.62895 32.5715C-3.75369 32.6962 -3.95593 32.6962 -4.08067 32.5715C-4.20541 32.4467 -4.20541 32.2445 -4.08067 32.1197L14.4382 13.6009C14.5629 13.4761 14.7652 13.4761 14.8899 13.6009Z" fill="#C9A364"/>
<path fill-rule="evenodd" clip-rule="evenodd" d="M17.6145 16.324C17.7393 16.4487 17.7393 16.651 17.6145 16.7757L-0.904342 35.2946C-1.02908 35.4193 -1.23132 35.4193 -1.35606 35.2946C-1.4808 35.1699 -1.48081 34.9676 -1.35606 34.8429L17.1628 16.324C17.2876 16.1993 17.4898 16.1993 17.6145 16.324Z" fill="#C9A364"/>
<path fill-rule="evenodd" clip-rule="evenodd" d="M20.3372 19.0476C20.4619 19.1724 20.4619 19.3746 20.3372 19.4994L1.81832 38.0182C1.69357 38.143 1.49133 38.143 1.36659 38.0182C1.24185 37.8935 1.24185 37.6913 1.36659 37.5665L19.8855 19.0476C20.0102 18.9229 20.2124 18.9229 20.3372 19.0476Z" fill="#C9A364"/>
<path fill-rule="evenodd" clip-rule="evenodd" d="M23.0598 21.7708C23.1846 21.8955 23.1846 22.0978 23.0598 22.2225L4.54097 40.7414C4.41623 40.8661 4.21399 40.8661 4.08925 40.7414C3.96451 40.6166 3.96451 40.4144 4.08925 40.2897L22.6081 21.7708C22.7329 21.646 22.9351 21.646 23.0598 21.7708Z" fill="#C9A364"/>
<path fill-rule="evenodd" clip-rule="evenodd" d="M28.5071 27.2176C28.6319 27.3423 28.6319 27.5445 28.5071 27.6693L9.98824 46.1881C9.8635 46.3129 9.66126 46.3129 9.53652 46.1882C9.41178 46.0634 9.41178 45.8612 9.53652 45.7364L28.0554 27.2176C28.1801 27.0928 28.3824 27.0928 28.5071 27.2176Z" fill="#C9A364"/>
<path fill-rule="evenodd" clip-rule="evenodd" d="M33.9544 32.6643C34.0791 32.7891 34.0791 32.9913 33.9544 33.1161L15.4355 51.6349C15.3108 51.7597 15.1085 51.7597 14.9838 51.6349C14.859 51.5102 14.859 51.3079 14.9838 51.1832L33.5027 32.6643C33.6274 32.5396 33.8296 32.5396 33.9544 32.6643Z" fill="#C9A364"/>
</g>
<path fill-rule="evenodd" clip-rule="evenodd" d="M48.0728 12.6726C48.1761 12.6624 48.2435 12.74 48.2435 12.8691L48.2435 37.1579C48.2435 37.2427 48.2143 37.3409 48.1623 37.4308C48.1103 37.5207 48.0399 37.595 47.9664 37.6373L27.0828 49.4845C26.971 49.5489 26.8703 49.5291 26.8276 49.4343C26.7849 49.3396 26.8087 49.1886 26.8878 49.0516L47.7714 12.9156C47.8506 12.7787 47.9695 12.6828 48.0728 12.6726ZM27.5997 48.7211L47.6902 37.1574L47.6902 13.9588L27.5997 48.7211Z" fill="#C9A364"/>
<mask id="mask1" style="mask-type:alpha" maskUnits="userSpaceOnUse" x="26" y="13" width="23" height="37">
<path d="M48.0039 37.3547L26.9692 49.4991L48.0039 13.0659L48.0039 37.3547Z" fill="#C4C4C4"/>
</mask>
<g mask="url(#mask1)">
<path fill-rule="evenodd" clip-rule="evenodd" d="M41.9695 11.3001C41.8447 11.4248 41.8447 11.6271 41.9695 11.7518L60.4883 30.2707C60.6131 30.3954 60.8153 30.3954 60.9401 30.2707C61.0648 30.1459 61.0648 29.9437 60.9401 29.819L42.4212 11.3001C42.2964 11.1753 42.0942 11.1753 41.9695 11.3001Z" fill="#C9A364"/>
<path fill-rule="evenodd" clip-rule="evenodd" d="M39.2468 14.0227C39.1221 14.1475 39.1221 14.3497 39.2468 14.4745L57.7657 32.9933C57.8904 33.1181 58.0927 33.1181 58.2174 32.9933C58.3421 32.8686 58.3421 32.6664 58.2174 32.5416L39.6985 14.0227C39.5738 13.898 39.3715 13.898 39.2468 14.0227Z" fill="#C9A364"/>
<path fill-rule="evenodd" clip-rule="evenodd" d="M36.5222 16.7464C36.3974 16.8711 36.3974 17.0734 36.5222 17.1981L55.0411 35.717C55.1658 35.8417 55.368 35.8417 55.4928 35.717C55.6175 35.5922 55.6175 35.39 55.4928 35.2652L36.9739 16.7464C36.8492 16.6216 36.6469 16.6216 36.5222 16.7464Z" fill="#C9A364"/>
<path fill-rule="evenodd" clip-rule="evenodd" d="M33.7995 19.4695C33.6748 19.5943 33.6748 19.7965 33.7995 19.9212L52.3184 38.4401C52.4431 38.5649 52.6454 38.5649 52.7701 38.4401C52.8949 38.3154 52.8949 38.1131 52.7701 37.9884L34.2513 19.4695C34.1265 19.3448 33.9243 19.3448 33.7995 19.4695Z" fill="#C9A364"/>
<path fill-rule="evenodd" clip-rule="evenodd" d="M31.0769 22.1931C30.9521 22.3179 30.9521 22.5201 31.0769 22.6449L49.5957 41.1637C49.7205 41.2885 49.9227 41.2885 50.0475 41.1637C50.1722 41.039 50.1722 40.8368 50.0475 40.712L31.5286 22.1931C31.4039 22.0684 31.2016 22.0684 31.0769 22.1931Z" fill="#C9A364"/>
<path fill-rule="evenodd" clip-rule="evenodd" d="M25.6296 27.6399C25.5049 27.7647 25.5049 27.9669 25.6296 28.0916L44.1485 46.6105C44.2732 46.7353 44.4755 46.7353 44.6002 46.6105C44.7249 46.4858 44.7249 46.2835 44.6002 46.1588L26.0813 27.6399C25.9566 27.5152 25.7543 27.5152 25.6296 27.6399Z" fill="#C9A364"/>
<path fill-rule="evenodd" clip-rule="evenodd" d="M20.1823 33.0867C20.0576 33.2114 20.0576 33.4137 20.1823 33.5384L38.7012 52.0573C38.826 52.182 39.0282 52.182 39.1529 52.0573C39.2777 51.9326 39.2777 51.7303 39.1529 51.6056L20.6341 33.0867C20.5093 32.962 20.3071 32.962 20.1823 33.0867Z" fill="#C9A364"/>
</g>
<path fill-rule="evenodd" clip-rule="evenodd" d="M41.7852 8.94355C41.9146 9.06346 41.9223 9.26556 41.8024 9.39494L27.167 25.1858C27.0471 25.3151 26.845 25.3228 26.7156 25.2029C26.5862 25.083 26.5785 24.8809 26.6984 24.7515L41.3338 8.96069C41.4537 8.8313 41.6558 8.82363 41.7852 8.94355Z" fill="#C9A364"/>
<path fill-rule="evenodd" clip-rule="evenodd" d="M47.2905 12.8321L26.7676 0.593602L27.0948 0.0449219L48.085 12.562C48.1823 12.6201 48.2416 12.7253 48.2408 12.8386C48.24 12.9518 48.1793 13.0562 48.0812 13.1129L27.091 25.2449L26.7713 24.6918L47.2905 12.8321Z" fill="#C9A364"/>
<path fill-rule="evenodd" clip-rule="evenodd" d="M34.9319 5.0555L27.2291 25.0829L26.6328 24.8536L34.3357 4.82617L34.9319 5.0555Z" fill="#C9A364"/>
<path fill-rule="evenodd" clip-rule="evenodd" d="M12.08 8.94355C11.9506 9.06346 11.943 9.26556 12.0629 9.39494L26.6983 25.1858C26.8182 25.3151 27.0203 25.3228 27.1497 25.2029C27.279 25.083 27.2867 24.8809 27.1668 24.7515L12.5314 8.96069C12.4115 8.8313 12.2094 8.82363 12.08 8.94355Z" fill="#C9A364"/>
<path fill-rule="evenodd" clip-rule="evenodd" d="M6.38362 12.8322L27.0938 0.59442L26.7688 0.0444336L5.58596 12.5615C5.48803 12.6194 5.42827 12.725 5.42904 12.8387C5.42982 12.9524 5.49101 13.0572 5.58971 13.1137L26.7725 25.2457L27.09 24.6913L6.38362 12.8322Z" fill="#C9A364"/>
<path fill-rule="evenodd" clip-rule="evenodd" d="M18.9314 5.0555L26.6342 25.0829L27.2305 24.8536L19.5276 4.82617L18.9314 5.0555Z" fill="#C9A364"/>
<path d="M53.9813 24.8061C53.9813 24.8061 40.8852 38.0619 26.9906 38.0619C13.096 38.0619 0 24.8061 0 24.8061C0 24.8061 12.0841 9.31445 26.9906 9.31445C41.8971 9.31445 53.9813 24.8061 53.9813 24.8061Z" fill="#020617"/>
<path fill-rule="evenodd" clip-rule="evenodd" d="M0.864849 24.7564C0.914748 24.8039 0.969035 24.8553 1.02762 24.9104C1.40667 25.2671 1.96544 25.7785 2.67993 26.393C4.10956 27.6226 6.15922 29.2623 8.63725 30.9011C13.6109 34.1905 20.2304 37.423 26.9906 37.423C33.7508 37.423 40.3703 34.1905 45.344 30.9011C47.822 29.2623 49.8717 27.6226 51.3013 26.393C52.0158 25.7785 52.5746 25.2671 52.9536 24.9104C53.0122 24.8553 53.0665 24.8039 53.1164 24.7564C53.0649 24.6947 53.008 24.6271 52.9459 24.5538C52.5926 24.1376 52.0695 23.5406 51.3948 22.8232C50.0447 21.3875 48.0912 19.4736 45.679 17.5608C40.8381 13.7224 34.2309 9.95328 26.9906 9.95328C19.7504 9.95328 13.1432 13.7224 8.30228 17.5608C5.89005 19.4736 3.93652 21.3875 2.58643 22.8232C1.91175 23.5406 1.38871 24.1376 1.0354 24.5538C0.973257 24.6271 0.916374 24.6947 0.864849 24.7564ZM53.9813 24.8061C53.9813 24.8061 40.8852 38.0619 26.9906 38.0619C13.096 38.0619 0 24.8061 0 24.8061C0 24.8061 12.0841 9.31445 26.9906 9.31445C41.8971 9.31445 53.9813 24.8061 53.9813 24.8061Z" fill="#C9A364"/>
<path fill-rule="evenodd" clip-rule="evenodd" d="M1.21088 24.3887C0.42391 24.6735 0 24.8486 0 24.8486C0 24.8486 0.290128 24.4757 0.835928 23.8453C3.81259 20.4076 14.3939 9.31445 26.9906 9.31445C39.5874 9.31445 50.1687 20.4076 53.1453 23.8453C53.6911 24.4757 53.9813 24.8486 53.9813 24.8486C53.9813 24.8486 53.5574 24.6735 52.7704 24.3887C49.3556 23.1533 39.1052 19.8552 26.9906 19.8552C14.8761 19.8552 4.62563 23.1533 1.21088 24.3887ZM2.07945 23.4076C3.45096 22.9417 5.38307 22.3372 7.74718 21.733C12.6664 20.4757 19.469 19.2163 26.9906 19.2163C34.5122 19.2163 41.3149 20.4757 46.2341 21.733C48.5982 22.3372 50.5303 22.9417 51.9018 23.4076C51.7437 23.2339 51.5743 23.0505 51.3942 22.8584C50.0441 21.4188 48.0906 19.4996 45.6783 17.5816C40.8373 13.7325 34.2303 9.95328 26.9906 9.95328C19.7509 9.95328 13.144 13.7325 8.30295 17.5816C5.8907 19.4996 3.93715 21.4188 2.58703 22.8584C2.40692 23.0505 2.23761 23.2339 2.07945 23.4076Z" fill="#C9A364"/>
<mask id="mask2" style="mask-type:alpha" maskUnits="userSpaceOnUse" x="0" y="19" width="54" height="20">
<path d="M53.9813 24.8485C53.9813 24.8485 41.8971 19.376 26.9906 19.376C12.0841 19.376 0 24.8485 0 24.8485C0 24.8485 5.04861 38.541 26.9906 38.541C47.7676 38.541 53.9813 24.8485 53.9813 24.8485Z" fill="#C4C4C4"/>
</mask>
<g mask="url(#mask2)">
<path fill-rule="evenodd" clip-rule="evenodd" d="M27.1851 36.2485C32.4088 36.2485 36.6435 32.0138 36.6435 26.7901C36.6435 21.5664 32.4088 17.3317 27.1851 17.3317C21.9614 17.3317 17.7267 21.5664 17.7267 26.7901C17.7267 32.0138 21.9614 36.2485 27.1851 36.2485ZM27.1851 36.8873C32.7616 36.8873 37.2823 32.3666 37.2823 26.7901C37.2823 21.2136 32.7616 16.6929 27.1851 16.6929C21.6086 16.6929 17.0879 21.2135 17.0879 26.7901C17.0879 32.3666 21.6086 36.8873 27.1851 36.8873Z" fill="#C9A364"/>
<path fill-rule="evenodd" clip-rule="evenodd" d="M28.3066 32.7082C25.8034 31.9059 23.9913 29.5595 23.9913 26.7898C23.9913 24.0202 25.8034 21.6738 28.3066 20.8715C27.7083 20.6797 27.0704 20.5762 26.4083 20.5762C22.9766 20.5762 20.1947 23.3581 20.1947 26.7898C20.1947 30.2216 22.9766 33.0035 26.4083 33.0035C27.0704 33.0035 27.7083 32.9 28.3066 32.7082Z" fill="white"/>
</g>
</svg>
