<svg width="25" height="24" viewBox="0 0 25 24" fill="none" xmlns="http://www.w3.org/2000/svg">
<path d="M18.5 3H15.32C14.9 1.84 13.8 1 12.5 1C11.2 1 10.1 1.84 9.68 3H6.5C5.4 3 4.5 3.9 4.5 5V20C4.5 21.1 5.4 22 6.5 22H12.61C12.02 21.43 11.54 20.75 11.19 20H6.5V5H8.5V6C8.5 7.1 9.4 8 10.5 8H14.5C15.6 8 16.5 7.1 16.5 6V5H18.5V10.08C19.21 10.18 19.88 10.39 20.5 10.68V5C20.5 3.9 19.6 3 18.5 3ZM12.5 5C11.95 5 11.5 4.55 11.5 4C11.5 3.45 11.95 3 12.5 3C13.05 3 13.5 3.45 13.5 4C13.5 4.55 13.05 5 12.5 5ZM17.5 12C14.74 12 12.5 14.24 12.5 17C12.5 19.76 14.74 22 17.5 22C20.26 22 22.5 19.76 22.5 17C22.5 14.24 20.26 12 17.5 12ZM18.79 19L17.14 17.35C17.05 17.26 16.99 17.13 16.99 17V14.51C16.99 14.23 17.21 14.01 17.49 14.01C17.77 14.01 17.99 14.23 17.99 14.51V16.8L19.49 18.3C19.69 18.5 19.69 18.81 19.49 19.01C19.3 19.2 18.99 19.2 18.79 19Z" fill="#C9A364"/>
</svg>
