<svg width="190" height="60" viewBox="0 0 190 60" fill="none" xmlns="http://www.w3.org/2000/svg">
<rect width="190" height="60" rx="8" fill="#C9A364"/>
<path d="M69.179 36.0994H71.8636C71.4162 33.2443 68.9446 31.2557 65.7273 31.2557C61.9205 31.2557 59.0653 34.054 59.0653 38.7415C59.0653 43.3438 61.7926 46.1989 65.8054 46.1989C69.4062 46.1989 71.9844 43.8835 71.9844 40.1335V38.3864H66.0824V40.446H69.4347C69.392 42.5199 68.0071 43.8338 65.8196 43.8338C63.3835 43.8338 61.7145 42.0085 61.7145 38.7131C61.7145 35.4389 63.4119 33.6207 65.7628 33.6207C67.517 33.6207 68.7102 34.5582 69.179 36.0994ZM78.6772 46.2131C81.8732 46.2131 83.9045 43.9616 83.9045 40.5881C83.9045 37.2074 81.8732 34.9489 78.6772 34.9489C75.4812 34.9489 73.4499 37.2074 73.4499 40.5881C73.4499 43.9616 75.4812 46.2131 78.6772 46.2131ZM78.6914 44.1534C76.9229 44.1534 76.0565 42.5767 76.0565 40.581C76.0565 38.5852 76.9229 36.9872 78.6914 36.9872C80.4315 36.9872 81.2979 38.5852 81.2979 40.581C81.2979 42.5767 80.4315 44.1534 78.6914 44.1534ZM90.3452 46.2131C93.5412 46.2131 95.5724 43.9616 95.5724 40.5881C95.5724 37.2074 93.5412 34.9489 90.3452 34.9489C87.1491 34.9489 85.1179 37.2074 85.1179 40.5881C85.1179 43.9616 87.1491 46.2131 90.3452 46.2131ZM90.3594 44.1534C88.5909 44.1534 87.7244 42.5767 87.7244 40.581C87.7244 38.5852 88.5909 36.9872 90.3594 36.9872C92.0994 36.9872 92.9659 38.5852 92.9659 40.581C92.9659 42.5767 92.0994 44.1534 90.3594 44.1534ZM101.999 50.3182C104.946 50.3182 107.12 48.9688 107.12 46.1776V35.0909H104.584V36.8949H104.442C104.051 36.1065 103.235 34.9489 101.31 34.9489C98.7887 34.9489 96.8072 36.9233 96.8072 40.5099C96.8072 44.0682 98.7887 45.8438 101.303 45.8438C103.171 45.8438 104.044 44.8423 104.442 44.0398H104.57V46.1065C104.57 47.7116 103.505 48.3722 102.042 48.3722C100.493 48.3722 99.8114 47.6406 99.4989 47.0014L97.1836 47.5625C97.6523 49.0895 99.2219 50.3182 101.999 50.3182ZM102.02 43.8267C100.323 43.8267 99.4279 42.5057 99.4279 40.4957C99.4279 38.5142 100.309 37.0582 102.02 37.0582C103.675 37.0582 104.584 38.429 104.584 40.4957C104.584 42.5767 103.661 43.8267 102.02 43.8267ZM111.826 31.4545H109.255V46H111.826V31.4545ZM118.799 46.2131C121.342 46.2131 123.089 44.9702 123.543 43.0739L121.143 42.804C120.795 43.7273 119.942 44.2102 118.835 44.2102C117.173 44.2102 116.072 43.1165 116.05 41.2486H123.65V40.4602C123.65 36.6321 121.349 34.9489 118.664 34.9489C115.539 34.9489 113.501 37.2429 113.501 40.6094C113.501 44.0327 115.511 46.2131 118.799 46.2131ZM116.058 39.5156C116.136 38.1236 117.165 36.9517 118.7 36.9517C120.177 36.9517 121.171 38.0312 121.185 39.5156H116.058ZM129.9 46H132.534V41.0852H135.319C138.678 41.0852 140.482 39.0682 140.482 36.2699C140.482 33.4929 138.699 31.4545 135.354 31.4545H129.9V46ZM132.534 38.919V33.6562H134.949C136.924 33.6562 137.797 34.7216 137.797 36.2699C137.797 37.8182 136.924 38.919 134.963 38.919H132.534ZM144.728 31.4545H142.157V46H144.728V31.4545ZM150.011 46.2202C151.723 46.2202 152.745 45.4176 153.214 44.5014H153.299V46H155.771V38.6989C155.771 35.8153 153.42 34.9489 151.339 34.9489C149.045 34.9489 147.284 35.9716 146.716 37.9602L149.116 38.3011C149.372 37.5554 150.096 36.9162 151.353 36.9162C152.547 36.9162 153.2 37.527 153.2 38.5994V38.642C153.2 39.3807 152.426 39.4162 150.501 39.6222C148.385 39.8494 146.36 40.4815 146.36 42.9389C146.36 45.0838 147.93 46.2202 150.011 46.2202ZM150.679 44.331C149.606 44.331 148.839 43.8409 148.839 42.8963C148.839 41.9091 149.699 41.4972 150.849 41.3338C151.524 41.2415 152.873 41.071 153.207 40.8011V42.0866C153.207 43.3011 152.227 44.331 150.679 44.331ZM159.064 50.0909C161.066 50.0909 162.224 49.0611 162.842 47.321L167.224 35.1051L164.475 35.0909L161.954 43.3295H161.841L159.326 35.0909H156.599L160.555 46.2273L160.335 46.8168C159.859 48.0597 159.106 48.1449 157.984 47.8182L157.387 49.821C157.735 49.9631 158.36 50.0909 159.064 50.0909Z" fill="white"/>
<path d="M66.1932 16H67.4659C67.0881 14.0312 65.4375 12.679 63.2898 12.679C60.6797 12.679 58.8352 14.6875 58.8352 17.9091C58.8352 21.1307 60.6648 23.1392 63.3693 23.1392C65.7955 23.1392 67.5256 21.5234 67.5256 19.0028V17.9091H63.6477V19.0028H66.3324C66.2976 20.8324 65.0945 21.9858 63.3693 21.9858C61.4801 21.9858 60.0284 20.554 60.0284 17.9091C60.0284 15.2642 61.4801 13.8324 63.2898 13.8324C64.7614 13.8324 65.7607 14.6626 66.1932 16ZM72.2799 23.1591C73.831 23.1591 74.9645 22.3835 75.3225 21.2301L74.189 20.9119C73.8907 21.7074 73.1996 22.1051 72.2799 22.1051C70.9027 22.1051 69.9532 21.2152 69.8985 19.5795H75.4418V19.0824C75.4418 16.2386 73.7515 15.2642 72.1605 15.2642C70.0924 15.2642 68.7202 16.8949 68.7202 19.2415C68.7202 21.5881 70.0725 23.1591 72.2799 23.1591ZM69.8985 18.5653C69.978 17.3771 70.8182 16.3182 72.1605 16.3182C73.4333 16.3182 74.2486 17.2727 74.2486 18.5653H69.8985ZM80.1476 15.3636H78.5169V13.5341H77.3436V15.3636H76.1902V16.358H77.3436V21.1307C77.3436 22.4631 78.4175 23.0994 79.4118 23.0994C79.8493 23.0994 80.1277 23.0199 80.2868 22.9602L80.0482 21.9062C79.9488 21.9261 79.7897 21.9659 79.5311 21.9659C79.0141 21.9659 78.5169 21.8068 78.5169 20.8125V16.358H80.1476V15.3636ZM85.05 23H86.2233V15.3636H85.05V23ZM85.6466 14.0909C86.104 14.0909 86.4819 13.733 86.4819 13.2955C86.4819 12.858 86.104 12.5 85.6466 12.5C85.1892 12.5 84.8114 12.858 84.8114 13.2955C84.8114 13.733 85.1892 14.0909 85.6466 14.0909ZM91.2933 15.3636H89.6626V13.5341H88.4893V15.3636H87.3359V16.358H88.4893V21.1307C88.4893 22.4631 89.5632 23.0994 90.5575 23.0994C90.995 23.0994 91.2734 23.0199 91.4325 22.9602L91.1939 21.9062C91.0945 21.9261 90.9354 21.9659 90.6768 21.9659C90.1598 21.9659 89.6626 21.8068 89.6626 20.8125V16.358H91.2933V15.3636ZM99.298 23.1591C101.366 23.1591 102.758 21.5881 102.758 19.2216C102.758 16.8352 101.366 15.2642 99.298 15.2642C97.2298 15.2642 95.8378 16.8352 95.8378 19.2216C95.8378 21.5881 97.2298 23.1591 99.298 23.1591ZM99.298 22.1051C97.727 22.1051 97.0111 20.7528 97.0111 19.2216C97.0111 17.6903 97.727 16.3182 99.298 16.3182C100.869 16.3182 101.585 17.6903 101.585 19.2216C101.585 20.7528 100.869 22.1051 99.298 22.1051ZM105.323 18.4062C105.323 17.0739 106.148 16.3182 107.271 16.3182C108.36 16.3182 109.021 17.0291 109.021 18.2273V23H110.195V18.1477C110.195 16.1989 109.156 15.2642 107.609 15.2642C106.456 15.2642 105.74 15.7812 105.382 16.5568H105.283V15.3636H104.149V23H105.323V18.4062Z" fill="white"/>
<path fill-rule="evenodd" clip-rule="evenodd" d="M21.9525 16.8252L34.5514 30.0196L22.013 43.3292C21.6471 43.0859 21.451 42.5576 21.4477 41.8753C21.4414 40.5676 21.3415 19.8099 21.334 18.2524C21.3305 17.5054 21.5896 17.0496 21.9525 16.8252ZM38.7062 25.6097L23.3859 16.8431C23.2223 16.7493 23.0364 16.6922 22.8513 16.6667L35.0727 29.4664L38.7062 25.6097ZM39.3869 33.9849L35.5971 30.016L39.3831 25.9973L44.5969 28.9801C45.8814 29.7146 45.2244 30.6336 44.5969 30.994L39.3869 33.9849ZM23.0516 43.3334C23.1584 43.2913 23.2699 43.2375 23.3857 43.1712L38.7092 34.374L35.0762 30.5693L23.0516 43.3334Z" fill="white"/>
</svg>
