<svg width="18" height="18" viewBox="0 0 18 18" fill="none" xmlns="http://www.w3.org/2000/svg">
<path d="M13.4381 11.0001H12.6481L12.3681 10.7301C13.5681 9.33014 14.1881 7.42014 13.8481 5.39014C13.3781 2.61014 11.0581 0.390137 8.25813 0.0501373C4.02813 -0.469863 0.468126 3.09014 0.988126 7.32014C1.32813 10.1201 3.54813 12.4401 6.32813 12.9101C8.35813 13.2501 10.2681 12.6301 11.6681 11.4301L11.9381 11.7101V12.5001L16.1881 16.7501C16.5981 17.1601 17.2681 17.1601 17.6781 16.7501C18.0881 16.3401 18.0881 15.6701 17.6781 15.2601L13.4381 11.0001ZM7.43813 11.0001C4.94813 11.0001 2.93813 8.99014 2.93813 6.50014C2.93813 4.01014 4.94813 2.00014 7.43813 2.00014C9.92813 2.00014 11.9381 4.01014 11.9381 6.50014C11.9381 8.99014 9.92813 11.0001 7.43813 11.0001Z" fill="#020617"/>
</svg>
